<?xml version="1.0" encoding="UTF-8" standalone="no"?>
<!-- Created with Sodipodi ("http://www.sodipodi.com/") -->
<svg
   xmlns:dc="http://purl.org/dc/elements/1.1/"
   xmlns:cc="http://web.resource.org/cc/"
   xmlns:rdf="http://www.w3.org/1999/02/22-rdf-syntax-ns#"
   xmlns:svg="http://www.w3.org/2000/svg"
   xmlns="http://www.w3.org/2000/svg"
   xmlns:sodipodi="http://inkscape.sourceforge.net/DTD/sodipodi-0.dtd"
   xmlns:inkscape="http://www.inkscape.org/namespaces/inkscape"
   height="380pt"
   id="svg548"
   sodipodi:docbase="C:\foo\wikipedia\transfer"
   sodipodi:docname="Ddraig.svg"
   sodipodi:version="0.32"
   width="570pt"
   inkscape:version="0.43"
   version="1.0">
  <metadata
     id="metadata1460">
    <rdf:RDF>
      <cc:Work
         rdf:about="">
        <dc:title>United Kingdom - Wales</dc:title>
        <dc:description />
        <dc:subject>
          <rdf:Bag>
            <rdf:li />
            <rdf:li>united_kingdom</rdf:li>
            <rdf:li>europe</rdf:li>
            <rdf:li>flag</rdf:li>
            <rdf:li>sign</rdf:li>
          </rdf:Bag>
        </dc:subject>
        <dc:publisher>
          <cc:Agent
             rdf:about="http://www.openclipart.org">
            <dc:title>Tobias Jakobs</dc:title>
          </cc:Agent>
        </dc:publisher>
        <dc:creator>
          <cc:Agent>
            <dc:title>Tobias Jakobs</dc:title>
          </cc:Agent>
        </dc:creator>
        <dc:rights>
          <cc:Agent>
            <dc:title>Tobias Jakobs</dc:title>
          </cc:Agent>
        </dc:rights>
        <dc:date />
        <dc:format>image/svg+xml</dc:format>
        <dc:type
           rdf:resource="http://purl.org/dc/dcmitype/StillImage" />
        <cc:license
           rdf:resource="http://web.resource.org/cc/PublicDomain" />
        <dc:language>en</dc:language>
      </cc:Work>
      <cc:License
         rdf:about="http://web.resource.org/cc/PublicDomain">
        <cc:permits
           rdf:resource="http://web.resource.org/cc/Reproduction" />
        <cc:permits
           rdf:resource="http://web.resource.org/cc/Distribution" />
        <cc:permits
           rdf:resource="http://web.resource.org/cc/DerivativeWorks" />
      </cc:License>
    </rdf:RDF>
  </metadata>
  <defs
     id="defs550" />
  <sodipodi:namedview
     id="base"
     inkscape:zoom="0.75998413"
     inkscape:cx="413.37991"
     inkscape:cy="224.31067"
     inkscape:window-width="812"
     inkscape:window-height="540"
     inkscape:window-x="22"
     inkscape:window-y="22"
     inkscape:current-layer="svg548" />
  <path
     d="M 669.47542,56.372331 C 664.50042,91.192831 669.44342,141.62883 678.08442,158.12483 C 667.60042,154.35783 655.93742,145.48383 650.16742,133.86083 C 646.07942,146.55783 641.99342,159.25483 637.90542,171.95183 C 663.82642,224.58083 596.42242,266.00483 540.32842,268.87483 C 574.56842,287.45583 619.38142,310.57683 619.38142,322.75283 C 605.76142,327.87583 597.63942,313.35983 586.76842,308.66383 C 598.42342,338.98183 591.22342,361.44483 585.20342,391.37083 C 579.31042,398.37483 585.19742,403.02383 587.55142,408.84983 C 592.94342,410.93683 598.33542,413.02483 603.72742,415.11183 C 604.59642,415.89483 605.46642,416.67783 606.33642,417.46083 C 606.33642,417.46083 617.72342,417.98183 620.85542,433.89683 C 613.27842,424.69883 602.94442,427.63483 602.94442,427.63483 C 601.64042,428.50483 600.33542,429.37483 599.03142,430.24383 C 595.98742,428.41783 592.94342,426.59183 589.89942,424.76583 C 579.81642,418.06783 569.55742,418.42983 558.59142,423.19983 C 553.02542,426.54883 547.28242,426.37083 541.89342,423.72183 C 535.71842,417.01783 522.32642,422.93883 522.06442,422.93883 C 521.80442,422.93883 507.71542,432.33083 507.71542,432.33083 C 507.71542,432.33083 504.32342,431.54783 504.06242,431.54783 C 503.80242,431.54783 494.91942,431.34383 483.19142,438.85283 C 486.28242,422.89883 497.80142,423.19983 497.80142,423.19983 C 496.73242,419.86683 499.19342,420.41683 499.88942,419.02483 C 503.68542,414.81583 511.71642,415.54683 517.62942,413.80783 C 506.32442,413.28583 495.01842,412.76483 483.71342,412.24183 C 483.88742,411.71983 484.06042,411.19883 484.23442,410.67683 C 476.82042,410.02983 470.99342,409.73783 466.75442,416.67783 C 466.32742,405.02383 476.13142,402.89583 482.40842,400.23983 C 485.24842,395.84483 491.44042,396.56483 497.28042,397.10983 C 497.28042,397.10983 529.63142,409.11083 527.28342,408.32783 C 524.93442,407.54583 489.19242,392.17483 489.19242,392.17483 C 487.42742,389.52883 489.71342,387.97783 489.71342,387.71683 C 489.71342,387.45583 480.07342,381.61883 473.27642,388.23883 C 474.59542,374.39383 491.01842,378.06383 491.01842,378.06383 C 491.95242,373.57383 496.41442,374.20083 498.58442,376.23783 C 502.84542,380.41283 507.10642,384.58583 511.36742,388.76083 C 515.36942,391.28383 519.36842,393.80483 523.37042,396.32683 C 534.50442,401.23883 546.34342,399.44883 556.24242,383.54283 C 552.86342,375.33083 554.42442,371.70483 561.98342,366.84483 C 560.03742,361.36583 560.73842,355.71083 563.02642,350.40883 C 559.67442,345.46883 557.67242,331.66783 560.94042,328.49183 C 553.44442,325.84583 550.50342,318.31683 549.98142,318.31683 C 543.10842,319.72883 537.15042,317.48783 534.32742,314.66483 C 523.69242,319.35883 514.64542,316.81883 507.71542,310.75183 C 495.50442,314.91583 484.35442,312.02383 478.49542,306.83683 C 469.14442,309.13083 454.43642,302.42283 451.88242,294.83583 C 446.50542,294.83583 441.00642,288.82783 435.18442,289.35783 C 430.39642,297.23183 429.13742,296.46083 421.87942,302.92383 C 414.46442,310.64683 417.10642,323.66183 422.92342,329.79683 C 432.05442,333.27583 441.18542,336.75483 450.31642,340.23383 C 471.19042,341.43783 476.18342,353.40483 475.88642,365.01883 C 468.00342,362.65583 467.70842,361.35083 463.88342,361.10583 C 458.49142,359.19183 453.09942,357.27783 447.70742,355.36483 C 430.86342,382.53683 406.96342,401.59183 372.82942,410.41583 C 379.35142,413.48983 385.87542,412.32883 392.39742,413.28583 C 394.74642,414.67783 397.09342,416.06783 399.44242,417.46083 C 409.59242,419.59383 416.74442,422.78783 416.66142,432.33083 C 409.87042,424.76283 403.25542,424.95583 397.87642,428.67883 C 387.05942,433.21583 380.83042,423.28683 372.30742,420.59083 C 365.08342,415.38483 358.03742,417.58883 351.69642,420.85083 C 344.57442,416.18283 336.39542,418.56983 328.21542,419.54683 C 318.02242,420.55983 306.41842,423.16283 301.34242,428.93883 C 297.99042,431.58483 296.64642,427.63483 296.38542,427.89583 C 284.65642,424.09983 279.42742,434.41883 279.42742,434.41883 C 276.64742,422.49983 282.68642,419.92983 289.08042,418.24283 C 284.73242,415.72083 280.38342,413.19883 276.03542,410.67683 C 275.76542,409.18783 274.78742,408.93383 277.34042,408.32783 C 272.21142,405.04283 267.08342,407.57883 261.42542,412.76283 C 261.94842,401.89283 275.35242,395.07983 280.99242,398.67583 C 285.05742,395.67083 292.47542,395.13683 297.95142,399.71883 C 304.11142,404.37783 313.44642,404.97983 319.60642,403.11083 C 316.94742,395.75783 308.46642,391.40483 303.69042,391.10883 C 296.95642,389.47083 289.16442,387.12783 291.42842,383.02083 C 287.27342,377.10583 281.35542,378.95583 274.73142,383.80383 C 277.10342,370.35083 291.29742,371.71683 295.08042,374.67183 C 296.44742,370.52983 300.81342,369.56283 304.47342,373.88883 C 310.24842,375.43683 311.08242,379.45483 314.38842,382.23783 C 320.79842,388.79983 330.73742,392.18783 338.91242,393.45683 C 346.55342,389.07083 355.60542,388.39083 364.48142,388.23883 C 366.18342,380.78483 371.06042,379.15183 377.52542,379.10783 C 377.30542,372.46283 380.61142,369.52383 386.91842,366.58383 C 386.91842,366.58383 376.92742,365.71483 376.22142,359.27883 C 359.46142,359.19383 348.41142,356.91083 347.00042,345.97283 C 331.74042,341.16983 322.12742,329.66383 328.21542,317.27383 C 320.63142,319.56683 315.69442,319.74383 309.16942,317.27383 C 298.58442,326.56183 282.17842,337.78983 272.12242,331.55283 C 267.35842,336.49283 256.20642,342.32083 255.94642,342.32083 C 254.62542,354.14083 245.50942,368.67083 245.50942,368.67083 C 240.98142,357.28383 232.39742,344.83683 232.98642,333.62583 C 217.72342,353.46383 208.80942,359.36583 196.72142,372.32383 C 186.92842,382.38883 181.89942,394.21883 178.45742,407.28383 C 185.75842,411.46883 195.15542,410.76283 203.50442,412.50283 C 205.77042,415.46783 205.24342,414.24183 206.11342,415.11183 C 215.01842,415.28683 221.59342,420.20783 221.50642,429.46083 C 213.56342,421.25483 205.59242,426.33083 205.59242,426.33083 C 199.07342,431.74383 190.80842,429.29983 182.89342,426.33083 C 176.02942,419.00383 166.02142,414.82083 157.58542,421.11283 C 147.41142,429.40183 142.82242,416.73583 127.06042,425.54783 C 115.83842,435.75583 100.25142,436.70983 96.012421,430.50483 C 96.012421,430.50483 88.228421,427.41283 77.228421,439.11483 C 80.371421,420.08483 92.099421,421.89583 92.099421,421.89583 C 91.926421,419.89583 91.752421,417.89483 91.578421,415.89483 C 90.099421,415.37183 88.622421,414.85083 87.143421,414.32883 C 79.227421,410.83483 69.390421,411.70683 64.966421,415.37183 C 67.991421,402.90283 79.573421,402.82983 88.186421,404.15383 C 89.752421,402.41483 91.316421,400.67483 92.882421,398.93583 C 89.304421,397.54783 90.094421,395.10983 91.056421,392.67383 C 86.273421,387.87383 82.712421,386.91383 76.706421,391.89183 C 78.600421,379.76483 90.096421,380.55583 98.100421,385.88983 C 102.43942,383.17583 111.84342,388.31983 117.92942,391.89183 C 136.46142,398.11183 148.00942,398.91783 166.71742,374.93283 C 166.87742,363.52583 167.56242,359.10183 177.67442,352.23483 C 173.82342,345.27283 175.90942,338.31083 185.50242,335.01583 C 182.09942,331.79983 184.73042,327.06683 187.08842,322.10583 C 173.34242,321.48883 157.92642,322.91783 147.14942,326.66583 C 143.59042,337.54083 138.98542,348.93883 131.23542,356.14783 C 131.41042,327.82183 115.08742,307.74383 95.231421,286.48783 C 72.451421,271.56383 62.362421,241.51783 60.530421,231.69883 C 56.342421,242.69583 53.486421,244.48283 53.486421,244.74283 C 48.422421,250.24083 51.864421,262.74483 41.390421,263.00683 C 31.614621,274.96683 19.830121,267.96383 19.830121,267.96383 C 30.985321,266.40983 32.886521,261.88783 34.962321,254.39683 C 27.974821,252.74983 34.082521,246.91383 37.571321,244.74283 C 39.739421,244.32383 45.225421,230.46083 48.790421,230.91583 C 50.268421,217.26183 51.747421,203.60683 53.225421,189.95383 C 44.251421,186.22583 38.246221,180.40083 38.875921,170.38583 C 35.559621,166.12383 33.291221,159.94383 37.832221,157.60183 C 35.839321,152.46783 33.497321,146.80983 26.091621,144.81783 C 43.259421,141.83983 45.411421,152.30383 49.833421,153.16683 C 54.878421,156.18483 58.351421,173.51983 64.444421,182.64883 C 59.814421,167.68183 62.168421,157.60183 66.792421,144.55683 C 66.805421,137.50783 63.849421,130.63583 56.878421,126.55383 C 71.544421,126.20583 77.489421,141.42583 78.010421,141.94883 C 87.263421,153.99383 74.777421,162.36383 78.793421,167.77683 C 81.663421,165.60283 83.137421,160.63383 87.403421,161.25483 C 90.974421,157.34883 93.675421,153.09083 93.404421,144.29583 C 102.39142,149.42183 100.20442,156.98983 97.317421,164.38583 C 97.852421,175.45083 96.292421,178.48183 88.969421,182.38783 C 81.635421,186.75283 80.269421,190.36683 81.142421,195.69283 C 90.047421,205.20983 91.839421,234.56783 91.839421,234.56783 C 100.80342,237.26883 104.07542,245.00083 103.57942,251.26483 C 112.04742,250.50883 119.76342,257.06683 121.05942,263.00683 C 126.06442,258.30783 133.12042,262.68183 138.01842,267.70283 C 139.74542,265.08383 143.41542,263.86883 147.41142,265.35383 C 147.40242,260.75083 149.99042,257.87583 154.19342,254.13583 C 144.06742,246.27883 141.28042,226.86783 152.62942,216.30383 C 150.35942,202.07583 154.68742,188.65583 162.02142,187.08383 C 159.65042,171.48883 168.97742,166.54283 172.71842,162.81983 C 170.27342,155.66183 178.18242,142.55483 182.63242,142.46983 C 178.17942,135.04983 186.43342,121.51383 193.06942,120.55383 C 193.06942,120.29283 188.63342,110.11783 188.63342,110.11783 C 188.63342,110.11783 167.38242,113.30783 163.58742,132.81583 C 160.96842,128.75983 158.36842,122.64083 158.36842,122.64083 C 158.36842,122.64083 149.88242,145.34183 149.62042,144.82083 C 142.29042,140.37083 145.58542,129.42483 145.58542,129.42483 C 140.26742,123.60083 141.23642,116.20583 139.06142,109.59583 C 119.14642,108.72683 99.231421,107.85683 79.315421,106.98683 C 79.315421,106.98683 86.098421,119.51083 86.098421,119.24983 C 79.029421,119.38183 44.509421,89.857831 37.832221,64.721131 C 55.525421,78.616431 74.398421,82.299631 94.448421,86.375931 C 89.143421,88.984831 83.838421,91.593831 78.532421,94.202831 C 133.51942,98.915831 190.46042,88.723831 190.19842,88.462831 C 184.04642,75.634231 163.84742,75.679031 163.84742,75.679031 C 163.84742,78.548931 163.84742,81.418831 163.84742,84.288731 C 162.02142,82.984331 160.19542,81.679731 158.36842,80.375331 C 158.28242,82.549431 158.19542,84.723731 158.10842,86.897831 C 156.71642,85.941231 155.32542,84.984531 153.93342,84.028031 C 153.49942,85.854231 153.06342,87.680831 152.62942,89.506831 C 151.23742,88.549831 149.84642,87.593831 148.45442,86.636831 C 147.84542,88.288831 147.23742,89.941831 146.62842,91.593831 C 145.06242,90.376831 143.49842,89.158831 141.93242,87.941831 C 141.93242,87.941831 138.01842,87.940831 137.75742,87.419831 C 135.20342,74.371231 122.88542,74.113631 122.88542,74.113631 C 108.42742,72.252431 97.142421,75.331231 84.272421,75.939931 C 103.17342,52.228731 129.14142,54.439431 153.93342,51.937031 C 155.74042,41.394231 165.00842,38.314231 175.84842,36.804731 C 175.84842,36.804731 226.72442,39.413731 226.98542,39.413731 C 233.53042,30.772931 253.85842,27.151431 253.85842,27.151431 C 260.98942,23.585731 268.90642,25.126031 275.25242,16.454431 C 273.59642,28.298731 273.51242,30.717131 272.64342,37.848431 C 274.81842,38.109331 276.99142,38.370031 279.16642,38.631031 C 273.25242,42.457431 265.37542,47.855031 259.46042,51.681631 C 252.87642,61.654931 254.14842,61.809231 256.98942,67.069231 C 258.98942,70.547931 260.99042,74.026731 262.99042,77.505431 C 273.13542,80.630731 280.53142,84.934131 282.81942,91.593831 C 271.84542,90.278831 263.85742,92.320831 264.03442,97.072831 C 264.25042,100.57183 272.58142,102.12983 275.97342,104.21683 C 282.27442,110.12283 284.34242,115.32383 284.64542,122.64083 C 276.55742,122.20683 265.99942,110.12783 260.38142,121.33683 C 257.70042,126.81983 260.66442,134.24483 267.68642,136.72983 C 280.56542,140.25883 281.77442,157.86283 281.51342,157.86283 C 281.25342,157.86283 253.22242,139.15383 254.63442,156.62083 C 254.16642,164.33683 257.75742,166.05283 260.64242,168.29883 C 269.04042,171.39983 276.20442,175.02983 275.25242,183.95283 C 263.17142,179.60083 257.44142,183.01383 255.94642,189.95383 C 257.51242,194.47583 259.07642,198.99783 260.64242,203.52083 C 276.99142,200.21483 293.34242,196.91183 309.69242,193.60583 C 316.83742,187.09483 320.05542,176.26483 319.34442,164.64683 C 320.19742,147.34083 313.98142,131.99683 336.04242,112.72683 C 382.03942,74.397031 428.82242,44.314831 481.10442,15.410831 C 470.49942,33.084931 462.86742,66.019931 490.62242,68.115631 C 499.52442,68.247531 597.20442,27.151431 597.20442,27.151431 C 563.24342,51.937031 524.17342,86.541431 569.54942,101.50783 C 527.91742,114.46883 493.38742,156.56683 523.63042,190.47583 C 502.02842,184.32383 473.68642,198.24683 468.58042,213.95683 C 493.15342,213.77383 515.36942,212.41483 538.76342,220.47883 C 538.76342,220.47883 603.97942,233.47283 608.42242,204.82583 C 573.59142,212.31283 547.76942,208.85083 546.59042,177.43083 C 546.89342,150.48683 587.37642,135.32683 621.84942,155.51483 C 625.41442,148.20983 628.86042,140.90383 632.42642,133.59883 C 619.81642,135.15883 608.43142,137.29683 595.38142,134.24683 C 621.91242,109.07383 646.87242,84.294231 669.47542,56.372331 z "
     id="path554"
     sodipodi:nodetypes="cccccccccccccccccccccccccccccccccccccccccccccccccccccccccccccccccccccccccccccccccccccccccccccccccccccccccccccccccccccccccccccccccccccccccccccccccccccccccccccccccccccccccccccccccccccccccccccccccccccccccccccccccccc"
     style="font-size:12px;fill:#000000;fill-opacity:1;fill-rule:evenodd;stroke:none;stroke-width:1.72289002;stroke-linejoin:round" />
  <path
     d="M 174.23342,55.019931 L 186.24942,57.245231 C 186.24942,57.245231 177.79342,68.593831 174.23342,55.019931 z "
     id="path592"
     style="font-size:12px;fill:#ffffff;fill-opacity:1;fill-rule:evenodd;stroke:#ffffff;stroke-width:1.37831001pt;stroke-linejoin:round;stroke-opacity:1" />
</svg>
